<svg width="82" height="100" viewBox="0 0 82 100" fill="none" xmlns="http://www.w3.org/2000/svg">
<path d="M1.40225 20.0853C5.08964 14.3164 10.1389 9.73762 16.5727 6.34685C23.3115 2.79533 31.3149 1 40.6162 1C47.9784 1 54.4232 2.1963 59.972 4.5614L59.9774 4.56365C65.6139 6.92733 69.9352 10.3162 72.9879 14.7157L72.9946 14.7254L73.0015 14.7348C76.1349 19.032 77.7115 24.0506 77.7115 29.8319C77.7115 35.002 76.579 39.8934 74.3121 44.5178L74.3086 44.5253C72.1489 49.0245 67.869 54.2444 61.37 60.1863L61.3661 60.19L42.8787 77.2768L41.0021 79.0112H43.5574H80.3726V99H6.04202V83.067L42.4197 49.0498L42.4244 49.0453C45.9964 45.6613 48.4749 42.7216 49.7668 40.2373L49.7704 40.2302L49.774 40.2231C51.0489 37.6732 51.7003 35.0934 51.7003 32.493C51.7003 29.0669 50.5271 26.291 48.1159 24.2991C45.7211 22.3208 42.3291 21.409 38.0952 21.409C34.2949 21.409 30.7696 22.2873 27.5372 24.0494C24.6492 25.5847 22.2261 27.7783 20.2671 30.6086L1.40225 20.0853Z" stroke="url(#paint0_linear_1_36)" stroke-width="2"/>
<path d="M1.40225 20.0853C5.08964 14.3164 10.1389 9.73762 16.5727 6.34685C23.3115 2.79533 31.3149 1 40.6162 1C47.9784 1 54.4232 2.1963 59.972 4.5614L59.9774 4.56365C65.6139 6.92733 69.9352 10.3162 72.9879 14.7157L72.9946 14.7254L73.0015 14.7348C76.1349 19.032 77.7115 24.0506 77.7115 29.8319C77.7115 35.002 76.579 39.8934 74.3121 44.5178L74.3086 44.5253C72.1489 49.0245 67.869 54.2444 61.37 60.1863L61.3661 60.19L42.8787 77.2768L41.0021 79.0112H43.5574H80.3726V99H6.04202V83.067L42.4197 49.0498L42.4244 49.0453C45.9964 45.6613 48.4749 42.7216 49.7668 40.2373L49.7704 40.2302L49.774 40.2231C51.0489 37.6732 51.7003 35.0934 51.7003 32.493C51.7003 29.0669 50.5271 26.291 48.1159 24.2991C45.7211 22.3208 42.3291 21.409 38.0952 21.409C34.2949 21.409 30.7696 22.2873 27.5372 24.0494C24.6492 25.5847 22.2261 27.7783 20.2671 30.6086L1.40225 20.0853Z" stroke="url(#paint1_linear_1_36)" stroke-width="2"/>
<defs>
<linearGradient id="paint0_linear_1_36" x1="31.5332" y1="56.0526" x2="35.4451" y2="-1.08214" gradientUnits="userSpaceOnUse">
<stop stop-color="#42A3FF"/>
<stop offset="0.503269" stop-color="#AE21CB"/>
<stop offset="1" stop-color="#FFBF3C"/>
</linearGradient>
<linearGradient id="paint1_linear_1_36" x1="48.9558" y1="-38.5714" x2="48.9558" y2="135.714" gradientUnits="userSpaceOnUse">
<stop offset="0.223958" stop-color="#121119" stop-opacity="0"/>
<stop offset="0.71875" stop-color="#121119"/>
</linearGradient>
</defs>
</svg>
