<svg width="81" height="100" viewBox="0 0 81 100" fill="none" xmlns="http://www.w3.org/2000/svg">
<path d="M54.8698 38.5349L53.6611 39.8353L55.3996 40.1949C63.3611 41.8421 69.3508 45.1144 73.4685 49.9482L73.4749 49.9558L73.4815 49.9632C77.6953 54.7149 79.8123 60.4959 79.8123 67.367C79.8123 72.9614 78.2817 78.1432 75.2087 82.9334L75.2087 82.9334L75.2015 82.9448C72.2419 87.6982 67.6438 91.5976 61.3353 94.6151C55.1575 97.5215 47.4247 99 38.0952 99C31.2683 99 24.4863 98.1699 17.7478 96.5084C11.4552 94.9351 5.97507 92.747 1.29507 89.9545L10.486 70.9344C14.1579 73.3004 18.2267 75.1377 22.687 76.4496L22.692 76.451C27.63 77.8754 32.4852 78.591 37.2549 78.591C42.1278 78.591 46.1179 77.6853 49.1345 75.7748C52.22 73.8207 53.8011 70.9836 53.8011 67.367C53.8011 63.8801 52.4017 61.1664 49.591 59.3801C46.8571 57.6427 42.8842 56.8431 37.8151 56.8431H27.1905V40.728L44.4312 22.108L45.9863 20.4286H43.6975H6.04202V1H74.9104V16.974L54.8698 38.5349Z" stroke="url(#paint0_linear_1_219)" stroke-width="2"/>
<defs>
<linearGradient id="paint0_linear_1_219" x1="40.2763" y1="-3.53711e-08" x2="40.2763" y2="100" gradientUnits="userSpaceOnUse">
<stop stop-color="white" stop-opacity="0.15"/>
<stop offset="1" stop-color="white" stop-opacity="0"/>
</linearGradient>
</defs>
</svg>
