<svg width="20" height="20" viewBox="0 0 20 20" fill="none" xmlns="http://www.w3.org/2000/svg">
<path d="M19.9664 10.7349C19.9754 10.6856 19.9844 10.6363 19.993 10.5866V9.37779C19.9429 9.01124 19.9026 8.64351 19.8416 8.27892C19.7513 7.73998 19.6153 7.20969 19.4351 6.69378V6.68948C19.4316 6.68009 19.4285 6.6707 19.4253 6.6617C19.0178 5.46778 18.3746 4.36788 17.5339 3.42728C16.6132 2.36759 15.479 1.5144 14.2056 0.923607C12.8859 0.315108 11.4499 0 9.99667 0C8.54344 0 7.10748 0.315108 5.78778 0.923607C4.51436 1.5144 3.38015 2.36759 2.45946 3.42728C1.61881 4.36771 0.975726 5.4675 0.568403 6.66131L0.558231 6.68948V6.69378C0.377763 7.20962 0.241657 7.73993 0.151389 8.27892C0.0903618 8.64351 0.0496822 9.01124 0 9.37779V10.5882C0.00860636 10.6378 0.0176012 10.6871 0.0265988 10.7364C0.0862369 11.5412 0.243882 12.3358 0.496037 13.1024C0.687028 13.7186 0.945617 14.3117 1.26709 14.871C2.43247 16.9643 4.32977 18.6402 6.6711 19.4355L6.69927 19.4449C7.02409 19.5578 7.35473 19.6531 7.68978 19.7305C8.10051 19.8293 8.51743 19.9004 8.93771 19.9433C9.0801 19.9621 9.22289 19.9804 9.36528 20H10.6171C10.7595 19.9804 10.9023 19.9609 11.0447 19.9433C11.465 19.9004 11.8819 19.8293 12.2926 19.7305C12.6277 19.6531 12.9583 19.5578 13.2831 19.4449L13.3113 19.4355C15.6526 18.6402 17.5499 16.9643 18.7153 14.871C19.0383 14.3119 19.2983 13.7187 19.4907 13.1024C19.7451 12.3355 19.9048 11.5405 19.9664 10.7349ZM16.4393 4.57231C16.4648 4.60244 16.4898 4.63295 16.5148 4.66346C16.5552 4.71275 16.595 4.7627 16.6341 4.81329L16.6811 4.87393C16.7199 4.92426 16.7581 4.97538 16.7957 5.02728C16.8286 5.07227 16.861 5.11725 16.8931 5.16263L16.9455 5.24087C16.9874 5.30151 17.0285 5.36253 17.0688 5.42474L17.0911 5.45955C17.1406 5.53779 17.1892 5.61603 17.237 5.69427C17.8352 6.68753 18.2166 7.79604 18.3562 8.94708C18.366 9.0351 18.3742 9.12391 18.3804 9.21271H15.7532C15.6984 8.04967 15.5435 6.90699 15.2497 5.7862C14.9535 4.65603 14.5326 3.57632 13.9255 2.56703C14.8508 3.04518 15.6769 3.69474 16.3599 4.48116C16.3865 4.50972 16.4131 4.54102 16.4393 4.57231ZM10.9395 1.82845C11.5231 2.13828 11.9621 2.60498 12.3325 3.13935C13.0758 4.2085 13.5229 5.40518 13.7737 6.66953C13.9302 7.4574 13.9967 8.26366 14.1023 9.0617C14.1051 9.11148 14.1051 9.16137 14.1023 9.21114H10.819V1.77329C10.8612 1.79089 10.9011 1.80811 10.9395 1.82845ZM10.8256 10.7986H14.1203C14.0859 11.1828 14.0616 11.5634 14.0162 11.9409C13.8425 13.3903 13.4862 14.7881 12.8035 16.0876C12.4385 16.7851 11.9933 17.4228 11.3561 17.904C11.1945 18.026 11.0161 18.1254 10.8229 18.2435L10.8256 10.7986ZM2.74933 5.69231C2.79706 5.61408 2.84571 5.53584 2.89526 5.4576L2.91755 5.42278C2.95667 5.36058 2.99893 5.29955 3.04078 5.23892L3.0932 5.16068C3.12528 5.1153 3.15775 5.07031 3.19061 5.02532C3.22816 4.97316 3.26637 4.92204 3.30523 4.87197L3.35218 4.81134C3.3913 4.761 3.43042 4.71106 3.46954 4.66151C3.49457 4.63099 3.51961 4.60048 3.54503 4.57036C3.57046 4.54024 3.59785 4.50816 3.62327 4.47725C4.30623 3.69083 5.13235 3.04127 6.0577 2.56312C5.45056 3.57241 5.02964 4.65212 4.7335 5.78229C4.44284 6.90503 4.28792 8.04772 4.23276 9.20919H1.60586C1.61212 9.12039 1.62034 9.03158 1.63012 8.94356C1.76995 7.79306 2.15135 6.6851 2.74933 5.69231ZM9.16498 9.2131H5.88323C5.88042 9.16333 5.88042 9.11343 5.88323 9.06366C5.98885 8.26562 6.05535 7.45975 6.21183 6.67148C6.46259 5.40713 6.9113 4.21046 7.65301 3.14131C8.02347 2.60693 8.4624 2.14023 9.04607 1.83041C9.08519 1.81006 9.1243 1.79129 9.16577 1.77525L9.16498 9.2131ZM8.62592 17.9071C7.99022 17.4259 7.54504 16.7883 7.17849 16.0908C6.49702 14.79 6.14064 13.3915 5.96577 11.9441C5.92039 11.5665 5.89613 11.1859 5.86171 10.8018H9.15638V18.2459C8.96743 18.1285 8.78865 18.0272 8.62748 17.9051L8.62592 17.9071ZM2.99267 14.702C2.97663 14.6738 2.9598 14.6461 2.94142 14.6183C2.75804 14.34 2.59047 14.0516 2.43951 13.7545C2.26725 13.4099 2.11953 13.0535 1.99745 12.6881C1.96042 12.5744 1.92613 12.4593 1.89457 12.3427C1.80342 12.002 1.73222 11.6557 1.65985 11.3033C1.63364 11.1351 1.61135 10.9653 1.59413 10.7947H4.22572C4.35716 13.145 4.83559 15.3948 6.05613 17.4451C4.82002 16.804 3.76699 15.8595 2.99579 14.7L2.99267 14.702ZM13.9235 17.4439C15.1441 15.3936 15.6225 13.1439 15.7539 10.7935H18.3855C18.3683 10.9653 18.3464 11.1351 18.3198 11.3021C18.2478 11.6542 18.1766 12.0008 18.0851 12.3415C18.0538 12.4589 18.0194 12.5731 17.9822 12.6873C17.8601 13.0526 17.7124 13.4089 17.5402 13.7533C17.3892 14.0505 17.2216 14.3388 17.0382 14.6171C17.0199 14.6449 17.003 14.6727 16.987 14.7008C16.2153 15.8588 15.1623 16.802 13.9267 17.442L13.9235 17.4439Z" fill="#1C191A"/>
</svg>
